<svg width="500" height="500" viewBox="0 0 500 500" fill="none" xmlns="http://www.w3.org/2000/svg">
<path d="M417.619 395.673C423.317 385.422 428.977 374.928 433.522 363.603C441.495 343.742 447.926 321.466 449.558 295.65C449.796 291.893 449.763 288.092 450.215 284.216C450.457 310.411 446.498 333.228 440.752 353.613C435.716 371.472 428.652 387.784 420.248 402.114C419.069 404.123 417.698 406.055 416.697 408.159C436.731 381.558 452.402 349.451 458.232 308.398C460.177 294.702 460.836 279.276 459.677 263.71C458.076 242.202 453.291 222.676 446.927 205.876C444.775 200.188 442.243 194.828 439.567 189.58C429.346 169.516 417.129 151.145 402.503 135.295C401.783 134.517 401.506 134.086 400.926 134.112C400.501 134.133 399.248 134.864 398.298 135.295C395.44 136.589 392.636 137.839 390.148 138.976C364.873 150.517 339.781 162.317 315.623 174.464C308.595 177.998 301.466 181.22 294.593 184.848C287.701 188.487 280.762 192.064 273.827 195.493C270.366 197.204 267.008 199.157 263.574 200.883C253.065 206.166 242.952 211.915 232.293 216.917C282.391 188.373 332.979 160.196 383.051 131.746C386.398 129.847 389.732 127.842 393.172 126.095C392.064 124.532 390.512 123.407 389.097 122.154C387.674 120.891 386.358 119.404 384.628 118.472C369.563 125.752 354.122 132.392 338.888 139.37C323.653 146.349 308.805 153.99 293.937 161.189C293.69 161.288 294.524 160.784 294.725 160.663C301.439 156.658 308.105 152.428 314.836 148.307C321.566 144.188 328.251 139.997 334.945 135.821C346.692 128.499 358.581 121.382 370.171 114.136C371.788 113.124 373.651 112.233 374.902 110.718C355.163 96.373 331.884 84.528 302.743 79.436C295.322 78.138 287.584 77.246 279.611 76.675C254.139 74.85 229.526 77.929 209.292 82.985C181.939 89.818 158.462 101.152 138.316 115.449C128.106 122.696 118.963 130.593 110.319 139.24C102.227 147.332 95.246 156.71 88.896 166.316C88.488 166.931 87.962 167.789 87.056 167.761C86.95 166.76 87.781 165.996 88.239 165.265C96.015 152.825 105.043 141.495 115.052 131.484C125.822 120.714 137.994 111.343 150.934 102.832C176.91 85.75 207.709 73.044 245.044 67.738C220.143 68.096 198.535 72.862 179.192 79.437C159.997 85.961 142.95 94.91 127.67 105.461C97.304 126.426 73.045 154.996 56.694 189.713C48.506 207.097 42.084 226.943 38.819 249.385C36.371 266.205 36.02 286.343 38.03 303.8C41.364 332.752 49.786 356.535 60.899 377.93C67.691 391.003 75.668 402.979 84.637 413.82H86.454C84.037 410.352 81.659 406.831 79.433 403.167C67.679 383.83 58.879 361.625 53.54 336.001C53.056 333.686 52.506 331.319 52.356 328.904C58.312 354.506 67.7 377.417 79.565 397.647C82.833 403.22 86.278 408.614 89.917 413.82H406.202C410.293 408.05 414.102 402.001 417.619 395.673Z" fill="#D9E5F9"/>
<path fill-rule="evenodd" clip-rule="evenodd" d="M165.319 388.758C135.467 389.257 105.104 388.947 75.359 388.627C77.226 382.195 80.653 375.749 85.234 370.377C90.321 364.411 96.341 359.364 106.242 357.772C111.346 356.951 116.158 358.998 118.811 360.924C123.663 364.443 125.305 369.778 131.381 372.741C134.177 374.104 137.731 374.82 142.154 375.368C146.109 375.857 150.881 375.905 154.006 377.075C158.712 378.837 161.098 383.135 163.882 386.529C164.484 387.261 165.154 388.016 165.319 388.758Z" fill="#C16C06"/>
<path fill-rule="evenodd" clip-rule="evenodd" d="M448.785 401.6C448.785 408.429 443.25 413.962 436.421 413.962H68.911C62.084 413.962 56.548 408.428 56.548 401.6V400.241C56.548 393.413 62.084 387.879 68.911 387.879H436.421C443.25 387.879 448.785 393.414 448.785 400.241V401.6Z" fill="#C9C9C9"/>
<path fill-rule="evenodd" clip-rule="evenodd" d="M431.356 423.608C431.356 430.436 425.821 435.971 418.993 435.971H83.227C76.4 435.971 70.863 430.436 70.863 423.608V422.25C70.863 415.423 76.4 409.888 83.227 409.888H418.993C425.822 409.888 431.356 415.423 431.356 422.25V423.608Z" fill="#C9C9C9"/>
<path fill-rule="evenodd" clip-rule="evenodd" d="M389.554 451.596C389.554 456.566 385.525 460.596 380.554 460.596H167.168C162.199 460.596 158.168 456.566 158.168 451.596V450.608C158.168 445.637 162.198 441.609 167.168 441.609H380.554C385.525 441.609 389.554 445.637 389.554 450.608V451.596Z" fill="#C9C9C9"/>
<path fill-rule="evenodd" clip-rule="evenodd" d="M317.009 418.036C317.009 420.36 315.126 422.244 312.802 422.244H171.887C169.563 422.244 167.679 420.36 167.679 418.036V417.574C167.679 415.252 169.564 413.366 171.887 413.366H312.802C315.126 413.366 317.009 415.252 317.009 417.574V418.036Z" fill="#898989"/>
<path fill-rule="evenodd" clip-rule="evenodd" d="M379.411 410.738C379.411 412.681 377.836 414.257 375.892 414.257H341.329C339.386 414.257 337.809 412.682 337.809 410.738V410.351C337.809 408.41 339.385 406.833 341.329 406.833H375.892C377.836 406.833 379.411 408.41 379.411 410.351V410.738Z" fill="#898989"/>
<path fill-rule="evenodd" clip-rule="evenodd" d="M320.933 438.904C320.933 442.522 318.001 445.455 314.382 445.455H250.039C246.422 445.455 243.488 442.522 243.488 438.904V438.183C243.488 434.566 246.422 431.633 250.039 431.633H314.382C318.001 431.633 320.933 434.567 320.933 438.183V438.904Z" fill="#B2B2B2"/>
<path fill-rule="evenodd" clip-rule="evenodd" d="M159.759 418.036C159.759 420.36 157.876 422.244 155.551 422.244H114.222C111.899 422.244 110.014 420.36 110.014 418.036V417.574C110.014 415.25 111.899 413.366 114.222 413.366H155.551C157.876 413.366 159.759 415.25 159.759 417.574V418.036Z" fill="#898989"/>
<path fill-rule="evenodd" clip-rule="evenodd" d="M239.91 401.468C239.91 403.412 238.334 404.987 236.39 404.987H201.828C199.884 404.987 198.308 403.412 198.308 401.468V401.081C198.308 399.138 199.884 397.563 201.828 397.563H236.39C238.334 397.563 239.91 399.138 239.91 401.081V401.468Z" fill="#B2B2B2"/>
<path fill-rule="evenodd" clip-rule="evenodd" d="M324.588 401.468C324.588 403.412 323.012 404.987 321.069 404.987H249.295C247.351 404.987 245.776 403.412 245.776 401.468V401.081C245.776 399.138 247.351 397.563 249.295 397.563H321.069C323.012 397.563 324.588 399.138 324.588 401.081V401.468Z" fill="#B2B2B2"/>
<path fill-rule="evenodd" clip-rule="evenodd" d="M298.859 408.43C298.859 410.384 297.275 411.97 295.32 411.97C293.365 411.97 291.781 410.384 291.781 408.43C291.781 406.476 293.365 404.892 295.32 404.892C297.275 404.892 298.859 406.476 298.859 408.43Z" fill="white"/>
<path fill-rule="evenodd" clip-rule="evenodd" d="M152.889 426.467C152.889 428.421 151.305 430.007 149.35 430.007C147.395 430.007 145.811 428.421 145.811 426.467C145.811 424.513 147.395 422.929 149.35 422.929C151.305 422.93 152.889 424.514 152.889 426.467Z" fill="white"/>
<path fill-rule="evenodd" clip-rule="evenodd" d="M392.186 405.594C392.186 407.549 390.602 409.133 388.647 409.133C386.692 409.133 385.108 407.549 385.108 405.594C385.108 403.639 386.692 402.055 388.647 402.055C390.602 402.056 392.186 403.64 392.186 405.594Z" fill="white"/>
<path fill-rule="evenodd" clip-rule="evenodd" d="M198.915 410.25C198.915 412.205 197.331 413.789 195.376 413.789C193.421 413.789 191.837 412.205 191.837 410.25C191.837 408.295 193.421 406.712 195.376 406.712C197.331 406.712 198.915 408.295 198.915 410.25Z" fill="white"/>
<path fill-rule="evenodd" clip-rule="evenodd" d="M364.348 405.594C364.348 406.762 363.402 407.709 362.234 407.709C361.065 407.709 360.119 406.762 360.119 405.594C360.119 404.427 361.065 403.48 362.234 403.48C363.402 403.48 364.348 404.427 364.348 405.594Z" fill="white"/>
<path fill-rule="evenodd" clip-rule="evenodd" d="M145.811 401.942C145.811 403.11 144.865 404.057 143.696 404.057C142.528 404.057 141.581 403.11 141.581 401.942C141.581 400.774 142.528 399.828 143.696 399.828C144.865 399.828 145.811 400.774 145.811 401.942Z" fill="white"/>
<path fill-rule="evenodd" clip-rule="evenodd" d="M278.082 410.545C278.082 411.713 277.136 412.66 275.968 412.66C274.8 412.66 273.853 411.714 273.853 410.545C273.853 409.377 274.799 408.43 275.968 408.43C277.136 408.43 278.082 409.376 278.082 410.545Z" fill="white"/>
<path fill-rule="evenodd" clip-rule="evenodd" d="M251.199 396.979C251.199 398.147 250.253 399.093 249.084 399.093C247.916 399.093 246.969 398.147 246.969 396.979C246.969 395.811 247.916 394.864 249.084 394.864C250.253 394.865 251.199 395.811 251.199 396.979Z" fill="white"/>
<path fill-rule="evenodd" clip-rule="evenodd" d="M162.398 418.744C162.398 419.914 161.451 420.861 160.283 420.861C159.115 420.861 158.169 419.914 158.169 418.744C158.169 417.577 159.115 416.631 160.283 416.631C161.452 416.63 162.398 417.577 162.398 418.744Z" fill="white"/>
<path fill-rule="evenodd" clip-rule="evenodd" d="M398.724 399.095C398.724 400.264 397.777 401.21 396.609 401.21C395.441 401.21 394.494 400.264 394.494 399.095C394.494 397.927 395.441 396.98 396.609 396.98C397.777 396.979 398.724 397.927 398.724 399.095Z" fill="white"/>
<path fill-rule="evenodd" clip-rule="evenodd" d="M324.017 422.228C324.017 423.396 323.07 424.343 321.902 424.343C320.734 424.343 319.787 423.396 319.787 422.228C319.787 421.06 320.734 420.114 321.902 420.114C323.07 420.113 324.017 421.06 324.017 422.228Z" fill="white"/>
<path fill-rule="evenodd" clip-rule="evenodd" d="M287.864 418.746C287.864 419.517 287.239 420.141 286.468 420.141C285.696 420.141 285.071 419.517 285.071 418.746C285.071 417.974 285.696 417.349 286.468 417.349C287.239 417.349 287.864 417.974 287.864 418.746Z" fill="white"/>
<path fill-rule="evenodd" clip-rule="evenodd" d="M381.216 426.467C381.216 427.238 380.591 427.864 379.82 427.864C379.048 427.864 378.423 427.238 378.423 426.467C378.423 425.696 379.048 425.071 379.82 425.071C380.59 425.071 381.216 425.697 381.216 426.467Z" fill="white"/>
<path fill-rule="evenodd" clip-rule="evenodd" d="M217.572 400.92C217.572 401.691 216.948 402.316 216.176 402.316C215.405 402.316 214.78 401.691 214.78 400.92C214.78 400.149 215.404 399.524 216.176 399.524C216.948 399.525 217.572 400.149 217.572 400.92Z" fill="white"/>
<path fill-rule="evenodd" clip-rule="evenodd" d="M170.359 427.864C170.359 428.635 169.733 429.26 168.963 429.26C168.192 429.26 167.567 428.635 167.567 427.864C167.567 427.093 168.191 426.467 168.963 426.467C169.733 426.467 170.359 427.093 170.359 427.864Z" fill="white"/>
<path fill-rule="evenodd" clip-rule="evenodd" d="M156.096 396.979C156.096 397.751 155.472 398.375 154.701 398.375C153.93 398.375 153.305 397.751 153.305 396.979C153.305 396.208 153.93 395.584 154.701 395.584C155.471 395.584 156.096 396.209 156.096 396.979Z" fill="white"/>
<path fill-rule="evenodd" clip-rule="evenodd" d="M337.121 388.447C344.828 388.076 352.57 387.66 360.277 387.603V223.183H345.692V200.752H322.535V388.292H337.12V388.447H337.121Z" fill="white"/>
<path fill-rule="evenodd" clip-rule="evenodd" d="M401.588 360.875V279.52L387.208 274.748V388.292H399.009H401.588H420.014V360.875H401.588Z" fill="white"/>
<path fill-rule="evenodd" clip-rule="evenodd" d="M250.011 147.605H240.061V228.882H231.123V370.947H241.073V289.668H250.011V147.605Z" fill="white"/>
<path fill-rule="evenodd" clip-rule="evenodd" d="M310.358 190.568V96.914L249.373 108.435V235.821H244.833V388.292H249.373H273.345H284.962H310.358H316.645V190.568H310.358Z" fill="#C9C9C9"/>
<path fill-rule="evenodd" clip-rule="evenodd" d="M227.354 134.834V128.021H178.308V134.834H165.526V388.292H240.136V134.834H227.354Z" fill="#C9C9C9"/>
<path d="M387.208 234.164H341.544V388.292H387.208V234.164Z" fill="#C9C9C9"/>
<path d="M259.862 113.159H257.06V321.353H259.862V113.159Z" fill="#B2B2B2"/>
<path d="M270.307 113.159H267.502V321.353H270.307V113.159Z" fill="#B2B2B2"/>
<path d="M280.752 113.159H277.947V321.353H280.752V113.159Z" fill="#B2B2B2"/>
<path d="M291.195 113.159H288.391V321.353H291.195V113.159Z" fill="#B2B2B2"/>
<path d="M301.639 113.159H298.836V321.353H301.639V113.159Z" fill="#B2B2B2"/>
<path d="M375.602 342.203H328.247V388.292H375.602V342.203Z" fill="#898989"/>
<path fill-rule="evenodd" clip-rule="evenodd" d="M288.259 388.292H227.692V223.76L288.259 239.762V388.292Z" fill="#898989"/>
<path d="M333.114 381.883V387.895H242.096V381.883H277.396H296.965H333.114Z" fill="#731A23"/>
<path d="M333.114 353.556V381.883H296.965V349.811H277.396V381.883H242.096V353.556V348.224V339.796H333.114V348.224V353.556Z" fill="#95202B"/>
<path d="M242.096 338.302V335.664H287.596H333.114V338.302V339.796H242.096V338.302Z" fill="#731A23"/>
<path d="M333.114 321.537V335.664H287.596V291.565H333.114V291.77V308.516V321.537ZM320.507 323.103V302.778H301.772V323.103H320.507Z" fill="#DC3545"/>
<path d="M333.114 278.729V291.565H287.596V249.865H333.114V261.982V278.729ZM320.507 279.799V259.493H301.772V279.799H320.507Z" fill="#95202B"/>
<path d="M242.096 291.77V291.565H287.596V335.664H242.096V321.537V308.517V291.77ZM274.564 323.103V302.778H255.829V323.103H274.564Z" fill="#95202B"/>
<path d="M242.096 278.729V261.982V249.865H287.596V291.565H242.096V278.729ZM274.564 279.799V259.493H255.829V279.799H274.564Z" fill="#DC3545"/>
<path d="M124.518 88.379L123.541 87.132L188.815 36.009L299.17 72.399L298.674 73.902L189.125 37.779L124.518 88.379Z" fill="#898989"/>
<path d="M346.417 91.835H126.562C126.109 91.835 125.706 91.546 125.561 91.117C125.417 90.687 125.563 90.213 125.924 89.939L144.403 75.904C144.587 75.764 144.811 75.69 145.042 75.69H166.776C166.971 75.69 167.162 75.744 167.328 75.846L189.952 89.724H206.604L229.406 75.842C229.572 75.742 229.761 75.689 229.955 75.689H321.909C322.093 75.689 322.274 75.737 322.434 75.829L346.941 89.863C347.356 90.101 347.559 90.588 347.437 91.051C347.315 91.515 346.896 91.835 346.417 91.835ZM210.667 89.724H342.449L321.63 77.801H230.252L210.667 89.724ZM129.699 89.724H185.914L166.478 77.801H145.396L129.699 89.724Z" fill="#898989"/>
<path d="M229.956 91.835C229.778 91.835 229.599 91.791 229.439 91.7C229.106 91.514 228.9 91.162 228.9 90.779V76.746C228.9 76.163 229.373 75.69 229.956 75.69C230.539 75.69 231.012 76.163 231.012 76.746V88.899L252.394 75.844C252.72 75.646 253.128 75.638 253.461 75.825C253.794 76.012 254 76.364 254 76.746V90.78C254 91.363 253.527 91.836 252.944 91.836C252.361 91.836 251.889 91.364 251.889 90.78V78.628L230.505 91.681C230.337 91.784 230.147 91.835 229.956 91.835Z" fill="#898989"/>
<path d="M275.934 91.835C275.756 91.835 275.578 91.791 275.417 91.7C275.084 91.514 274.878 91.162 274.878 90.779V76.746C274.878 76.163 275.35 75.69 275.934 75.69C276.517 75.69 276.99 76.163 276.99 76.746V88.899L298.372 75.844C298.698 75.646 299.106 75.638 299.439 75.825C299.773 76.012 299.978 76.364 299.978 76.746V90.78C299.978 91.363 299.505 91.836 298.923 91.836C298.34 91.836 297.867 91.364 297.867 90.78V78.628L276.484 91.681C276.315 91.784 276.124 91.835 275.934 91.835Z" fill="#898989"/>
<path d="M252.945 91.835C252.768 91.835 252.589 91.791 252.428 91.7C252.095 91.514 251.889 91.162 251.889 90.779V76.746C251.889 76.163 252.361 75.69 252.944 75.69C253.527 75.69 254 76.163 254 76.746V88.899L275.382 75.844C275.708 75.646 276.116 75.638 276.448 75.825C276.782 76.012 276.988 76.364 276.988 76.746V90.78C276.988 91.363 276.516 91.836 275.932 91.836C275.348 91.836 274.876 91.364 274.876 90.78V78.628L253.494 91.681C253.326 91.784 253.135 91.835 252.945 91.835Z" fill="#898989"/>
<path d="M298.922 91.835C298.744 91.835 298.565 91.791 298.405 91.7C298.072 91.514 297.866 91.162 297.866 90.779V76.746C297.866 76.163 298.339 75.69 298.922 75.69C299.504 75.69 299.977 76.163 299.977 76.746V88.899L321.361 75.844C321.686 75.646 322.094 75.638 322.427 75.825C322.76 76.012 322.967 76.364 322.967 76.746V90.78C322.967 91.363 322.494 91.836 321.91 91.836C321.327 91.836 320.854 91.364 320.854 90.78V78.628L299.472 91.681C299.304 91.784 299.113 91.835 298.922 91.835Z" fill="#898989"/>
<path d="M166.755 91.835C166.556 91.835 166.357 91.779 166.184 91.667L145.966 78.679V90.78C145.966 91.363 145.493 91.836 144.909 91.836C144.327 91.836 143.853 91.364 143.853 90.78V76.746C143.853 76.359 144.064 76.003 144.403 75.819C144.741 75.633 145.154 75.648 145.48 75.857L165.697 88.846V76.746C165.697 76.163 166.171 75.69 166.754 75.69C167.336 75.69 167.809 76.163 167.809 76.746V90.78C167.809 91.166 167.599 91.522 167.26 91.708C167.102 91.792 166.928 91.835 166.755 91.835Z" fill="#898989"/>
<path d="M206.902 236.129H189.655C189.275 236.129 188.925 235.925 188.737 235.595C188.549 235.265 188.553 234.858 188.748 234.532L205.038 207.327H189.654C189.071 207.327 188.598 206.853 188.598 206.27C188.598 205.687 189.071 205.215 189.654 205.215H206.901C207.281 205.215 207.631 205.419 207.819 205.75C208.007 206.08 208.001 206.486 207.806 206.813L191.517 234.018H206.901C207.484 234.018 207.956 234.492 207.956 235.075C207.956 235.658 207.485 236.129 206.902 236.129Z" fill="#898989"/>
<path d="M206.902 178.522H189.655C189.275 178.522 188.925 178.317 188.737 177.987C188.549 177.656 188.553 177.249 188.748 176.923L205.038 149.717H189.654C189.071 149.717 188.598 149.245 188.598 148.662C188.598 148.078 189.071 147.606 189.654 147.606H206.901C207.281 147.606 207.631 147.811 207.819 148.142C208.007 148.472 208.001 148.878 207.806 149.205L191.517 176.41H206.901C207.484 176.41 207.956 176.883 207.956 177.466C207.957 178.049 207.485 178.522 206.902 178.522Z" fill="#898989"/>
<path d="M206.902 207.326H189.655C189.275 207.326 188.925 207.121 188.737 206.79C188.549 206.458 188.553 206.053 188.748 205.727L205.038 178.522H189.654C189.071 178.522 188.598 178.049 188.598 177.466C188.598 176.882 189.071 176.41 189.654 176.41H206.901C207.281 176.41 207.631 176.614 207.819 176.946C208.007 177.276 208.001 177.683 207.806 178.009L191.517 205.215H206.901C207.484 205.215 207.956 205.687 207.956 206.27C207.957 206.852 207.485 207.326 206.902 207.326Z" fill="#898989"/>
<path d="M206.902 149.717H189.655C189.275 149.717 188.925 149.512 188.737 149.182C188.549 148.851 188.553 148.445 188.748 148.119L205.038 120.913H189.654C189.071 120.913 188.598 120.441 188.598 119.857C188.598 119.274 189.071 118.801 189.654 118.801H206.901C207.281 118.801 207.631 119.006 207.819 119.336C208.007 119.667 208.001 120.074 207.806 120.399L191.517 147.605H206.901C207.484 147.605 207.956 148.078 207.956 148.661C207.957 149.245 207.485 149.717 206.902 149.717Z" fill="#898989"/>
<path d="M206.902 351.346H189.655C189.275 351.346 188.925 351.142 188.737 350.811C188.549 350.479 188.553 350.073 188.748 349.747L205.038 322.541H189.654C189.071 322.541 188.598 322.069 188.598 321.486C188.598 320.903 189.071 320.429 189.654 320.429H206.901C207.281 320.429 207.631 320.633 207.819 320.965C208.007 321.295 208.001 321.701 207.806 322.029L191.517 349.235H206.901C207.484 349.235 207.956 349.708 207.956 350.291C207.956 350.874 207.485 351.346 206.902 351.346Z" fill="#898989"/>
<path d="M206.902 293.738H189.655C189.275 293.738 188.925 293.534 188.737 293.202C188.549 292.872 188.553 292.465 188.748 292.138L205.038 264.933H189.654C189.071 264.933 188.598 264.461 188.598 263.876C188.598 263.293 189.071 262.821 189.654 262.821H206.901C207.281 262.821 207.631 263.026 207.819 263.356C208.007 263.687 208.001 264.094 207.806 264.419L191.517 291.626H206.901C207.484 291.626 207.956 292.098 207.956 292.682C207.957 293.265 207.485 293.738 206.902 293.738Z" fill="#898989"/>
<path d="M206.902 322.542H189.655C189.275 322.542 188.925 322.337 188.737 322.007C188.549 321.675 188.553 321.27 188.748 320.943L205.038 293.738H189.654C189.071 293.738 188.598 293.264 188.598 292.682C188.598 292.099 189.071 291.626 189.654 291.626H206.901C207.281 291.626 207.631 291.831 207.819 292.16C208.007 292.492 208.001 292.898 207.806 293.224L191.517 320.429H206.901C207.484 320.429 207.956 320.903 207.956 321.486C207.956 322.069 207.485 322.542 206.902 322.542Z" fill="#898989"/>
<path d="M206.902 264.934H189.655C189.275 264.934 188.925 264.73 188.737 264.398C188.549 264.068 188.553 263.662 188.748 263.335L205.038 236.129H189.654C189.071 236.129 188.598 235.657 188.598 235.074C188.598 234.491 189.071 234.017 189.654 234.017H206.901C207.281 234.017 207.631 234.222 207.819 234.553C208.007 234.885 208.001 235.29 207.806 235.617L191.517 262.822H206.901C207.484 262.822 207.956 263.294 207.956 263.877C207.957 264.461 207.485 264.934 206.902 264.934Z" fill="#898989"/>
<path d="M206.902 380.15H189.655C189.275 380.15 188.925 379.945 188.737 379.614C188.549 379.283 188.553 378.877 188.748 378.551L205.038 351.346H189.654C189.071 351.346 188.598 350.873 188.598 350.29C188.598 349.707 189.071 349.234 189.654 349.234H206.901C207.281 349.234 207.631 349.438 207.819 349.77C208.007 350.1 208.001 350.506 207.806 350.831L191.517 378.037H206.901C207.484 378.037 207.956 378.51 207.956 379.093C207.957 379.677 207.485 380.15 206.902 380.15Z" fill="#898989"/>
<path d="M206.902 380.133H189.655C189.072 380.133 188.599 379.66 188.599 379.077V90.78C188.599 90.198 189.072 89.724 189.655 89.724H206.902C207.485 89.724 207.957 90.198 207.957 90.78V379.077C207.957 379.66 207.485 380.133 206.902 380.133ZM190.71 378.021H205.846V91.835H190.71V378.021Z" fill="#898989"/>
<path d="M206.902 91.835H189.655C189.072 91.835 188.599 91.363 188.599 90.779V36.399C188.599 35.878 188.979 35.435 189.495 35.355C190.009 35.277 190.506 35.583 190.662 36.081L207.909 90.46C208.012 90.781 207.953 91.132 207.755 91.403C207.555 91.675 207.239 91.835 206.902 91.835ZM190.71 89.724H205.459L190.71 43.222V89.724Z" fill="#898989"/>
<path d="M206.902 91.835C206.598 91.835 206.295 91.705 206.086 91.451L188.839 70.512C188.58 70.196 188.525 69.76 188.7 69.389C188.874 69.02 189.246 68.785 189.655 68.785H200.261C200.844 68.785 201.317 69.258 201.317 69.841C201.317 70.424 200.845 70.896 200.261 70.896H191.893L207.717 90.108C208.087 90.558 208.022 91.224 207.572 91.595C207.376 91.757 207.138 91.835 206.902 91.835Z" fill="#898989"/>
<path d="M130.259 89.944C130.259 92.398 128.269 94.388 125.815 94.388C123.36 94.388 121.372 92.398 121.372 89.944C121.372 87.489 123.361 85.5 125.815 85.5C128.269 85.5 130.259 87.49 130.259 89.944Z" fill="#DC3545"/>
<path d="M303.256 75.954C303.256 78.408 301.267 80.397 298.813 80.397C296.358 80.397 294.368 78.408 294.368 75.954C294.368 73.499 296.358 71.509 298.813 71.509C301.267 71.508 303.256 73.499 303.256 75.954Z" fill="#DC3545"/>
<path d="M193.394 37.235C193.394 39.69 191.405 41.679 188.951 41.679C186.497 41.679 184.507 39.69 184.507 37.235C184.507 34.782 186.497 32.792 188.951 32.792C191.405 32.792 193.394 34.782 193.394 37.235Z" fill="#DC3545"/>
<path d="M222.654 114.224C222.654 115.758 221.454 117 219.974 117C218.494 117 217.295 115.758 217.295 114.224C217.295 112.691 218.494 111.45 219.974 111.45C221.455 111.449 222.654 112.691 222.654 114.224Z" fill="#B7CAE5"/>
<path d="M177.576 117.601L179.585 101.962L180.973 86.216C181.258 82.98 183.839 80.54 186.976 80.54H209.69C212.008 80.54 214.109 82.053 214.917 84.304L218.804 95.149C219.871 98.124 220.412 101.24 220.412 104.414V116.969C220.412 117.315 220.144 117.597 219.81 117.603L178.194 118.319C178.191 118.319 178.188 118.319 178.185 118.319C178.01 118.319 177.843 118.242 177.727 118.107C177.607 117.97 177.552 117.785 177.576 117.601Z" fill="#95202B"/>
<path d="M211.47 85.852L215.84 98.786C215.913 99.002 215.882 99.234 215.754 99.421C215.627 99.608 215.426 99.714 215.205 99.714H197.254V84.102H209.091C210.16 84.102 211.116 84.806 211.47 85.852Z" fill="#D9E5F9"/>
<mask id="mask0_3_7" style="mask-type:luminance" maskUnits="userSpaceOnUse" x="197" y="84" width="19" height="16">
<path d="M211.47 85.852L215.84 98.786C215.913 99.002 215.882 99.234 215.754 99.421C215.627 99.608 215.426 99.714 215.205 99.714H197.254V84.102H209.091C210.16 84.102 211.116 84.806 211.47 85.852Z" fill="white"/>
</mask>
<g mask="url(#mask0_3_7)">
<path d="M207.082 83.466L216.111 97.667L216.417 98.576C216.71 99.443 216.089 100.349 215.203 100.349H210.564L200.601 83.467L207.082 83.466Z" fill="#B7CAE5"/>
<path d="M198.066 83.466L207.295 100.349H205.236L196.639 84.773V83.466H198.066Z" fill="#B7CAE5"/>
<path d="M207.082 83.466L216.111 97.667L216.417 98.576C216.71 99.443 216.089 100.349 215.203 100.349H210.564L200.601 83.467L207.082 83.466Z" fill="white"/>
<path d="M198.066 83.466L207.295 100.349H205.236L196.639 84.773V83.466H198.066Z" fill="white"/>
</g>
<path d="M217.336 103.994V112.491C217.336 113.275 216.721 113.913 215.964 113.913H204.504L202.567 110.118C201.588 108.195 200.002 106.626 198.104 105.7L197.253 105.284V102.771L216.212 102.825C216.831 102.827 217.336 103.351 217.336 103.994Z" fill="#D9E5F9"/>
<mask id="mask1_3_7" style="mask-type:luminance" maskUnits="userSpaceOnUse" x="197" y="102" width="21" height="12">
<path d="M217.336 103.994V112.491C217.336 113.275 216.721 113.913 215.964 113.913H204.504L202.567 110.118C201.588 108.195 200.002 106.626 198.104 105.7L197.253 105.284V102.771L216.212 102.825C216.831 102.827 217.336 103.351 217.336 103.994Z" fill="white"/>
</mask>
<g mask="url(#mask1_3_7)">
<path d="M208.098 102.135L215.335 114.549H213.144L205.833 102.159L208.098 102.135Z" fill="#CBDBEF"/>
<path d="M217.949 103.994V112.49C217.949 112.66 217.924 112.824 217.886 112.981L211.278 102.176L216.213 102.19C217.173 102.193 217.949 102.998 217.949 103.994Z" fill="#CBDBEF"/>
</g>
<mask id="mask2_3_7" style="mask-type:luminance" maskUnits="userSpaceOnUse" x="197" y="102" width="21" height="12">
<path d="M217.336 103.994V112.491C217.336 113.275 216.721 113.913 215.964 113.913H204.504L202.567 110.118C201.588 108.195 200.002 106.626 198.104 105.7L197.253 105.284V102.771L216.212 102.825C216.831 102.827 217.336 103.351 217.336 103.994Z" fill="white"/>
</mask>
<g mask="url(#mask2_3_7)">
<path d="M208.098 102.135L215.335 114.549H213.144L205.833 102.159L208.098 102.135Z" fill="white"/>
<path d="M217.949 103.994V112.49C217.949 112.66 217.924 112.824 217.886 112.981L211.278 102.176L216.213 102.19C217.173 102.193 217.949 102.998 217.949 103.994Z" fill="white"/>
</g>
<path d="M184.589 86.569C184.721 85.163 185.849 84.102 187.215 84.102H193.587V107.738L183.03 102.506L184.589 86.569Z" fill="#D9E5F9"/>
<mask id="mask3_3_7" style="mask-type:luminance" maskUnits="userSpaceOnUse" x="183" y="84" width="11" height="24">
<path d="M184.589 86.569C184.721 85.163 185.849 84.102 187.215 84.102H193.587V107.738L183.03 102.506L184.589 86.569Z" fill="white"/>
</mask>
<g mask="url(#mask3_3_7)">
<path d="M187.214 83.466L194.199 102.642V107.513L185.552 83.946C186.041 83.644 186.607 83.466 187.214 83.466Z" fill="white"/>
</g>
<path d="M220.411 116.969C220.143 119.621 216.625 121.27 213.836 121.27H179.793C177.142 121.27 174.994 119.043 174.994 116.298V110.114C174.994 105.427 176.309 101.627 180.832 101.627C180.832 101.627 181.51 101.813 182.296 102.171L196.303 108.573C197.703 109.212 198.881 110.28 199.679 111.634L202.191 115.898C202.583 116.562 203.28 116.969 204.033 116.969H220.411Z" fill="#DC3545"/>
<path d="M328.68 194.055L311.863 183.579L295.045 194.055L294.208 192.709L311.863 181.714L329.517 192.709L328.68 194.055Z" fill="#898989"/>
<path d="M322.053 171.118H301.672V94.125H322.053V171.118ZM303.167 169.624H320.558V95.619H303.167V169.624Z" fill="#755027"/>
<path d="M311.793 186.576C309.34 186.576 307.179 185.099 306.289 182.813L308.748 181.854C309.241 183.119 310.436 183.934 311.793 183.934C313.594 183.934 315.06 182.47 315.06 180.668C315.06 178.866 313.594 177.401 311.793 177.401V174.761C315.05 174.761 317.7 177.411 317.7 180.668C317.7 183.925 315.05 186.576 311.793 186.576Z" fill="#755027"/>
<path d="M322.505 172.9L311.78 177.391L301.056 172.9V168.744H322.505V172.9Z" fill="#DC3545"/>
<path d="M308.667 168.744C308.667 170.469 307.269 171.867 305.543 171.867C303.818 171.867 302.419 170.469 302.419 168.744C302.419 167.018 303.818 165.619 305.543 165.619C307.27 165.619 308.667 167.018 308.667 168.744Z" fill="#ED8E26"/>
<path d="M307.171 168.744C307.171 169.642 306.443 170.371 305.544 170.371C304.645 170.371 303.916 169.642 303.916 168.744C303.916 167.845 304.645 167.117 305.544 167.117C306.443 167.116 307.171 167.844 307.171 168.744Z" fill="#C16C06"/>
<path d="M321.306 168.744C321.306 170.469 319.908 171.867 318.181 171.867C316.456 171.867 315.057 170.469 315.057 168.744C315.057 167.018 316.456 165.619 318.181 165.619C319.908 165.619 321.306 167.018 321.306 168.744Z" fill="#ED8E26"/>
<path d="M319.809 168.744C319.809 169.642 319.081 170.371 318.181 170.371C317.282 170.371 316.554 169.642 316.554 168.744C316.554 167.845 317.282 167.117 318.181 167.117C319.081 167.116 319.809 167.844 319.809 168.744Z" fill="#C16C06"/>
<path d="M326.135 93.189C326.135 94.52 325.056 95.599 323.726 95.599H300.561C299.231 95.599 298.152 94.52 298.152 93.189C298.152 91.858 299.231 90.78 300.561 90.78H323.726C325.056 90.78 326.135 91.858 326.135 93.189Z" fill="#DC3545"/>
<path d="M308.667 95.599C308.667 97.323 307.269 98.721 305.543 98.721C303.818 98.721 302.419 97.323 302.419 95.599C302.419 93.872 303.818 92.474 305.543 92.474C307.27 92.474 308.667 93.872 308.667 95.599Z" fill="#ED8E26"/>
<path d="M307.171 95.599C307.171 96.496 306.443 97.225 305.544 97.225C304.645 97.225 303.916 96.496 303.916 95.599C303.916 94.699 304.645 93.971 305.544 93.971C306.443 93.97 307.171 94.699 307.171 95.599Z" fill="#C16C06"/>
<path d="M321.306 95.599C321.306 97.323 319.908 98.721 318.181 98.721C316.456 98.721 315.057 97.323 315.057 95.599C315.057 93.872 316.456 92.474 318.181 92.474C319.908 92.474 321.306 93.872 321.306 95.599Z" fill="#ED8E26"/>
<path d="M319.809 95.599C319.809 96.496 319.081 97.225 318.181 97.225C317.282 97.225 316.554 96.496 316.554 95.599C316.554 94.699 317.282 93.971 318.181 93.971C319.081 93.97 319.809 94.699 319.809 95.599Z" fill="#C16C06"/>
<path d="M312.282 181.98L311.444 183.325L328.68 194.061L329.517 192.716L312.282 181.98Z" fill="#898989"/>
<path d="M222.349 379.461C222.349 380.639 221.386 381.592 220.199 381.592H176.657C175.468 381.592 174.507 380.639 174.507 379.461V372.501C174.507 371.322 175.469 370.369 176.657 370.369H220.199C221.387 370.369 222.349 371.323 222.349 372.501V379.461Z" fill="#95202B"/>
<path d="M183.089 384.728C183.089 386.458 181.685 387.863 179.954 387.863C178.223 387.863 176.819 386.458 176.819 384.728C176.819 382.996 178.223 381.592 179.954 381.592C181.685 381.592 183.089 382.996 183.089 384.728Z" fill="#ED8E26"/>
<path d="M181.804 384.728C181.804 385.75 180.975 386.578 179.954 386.578C178.931 386.578 178.103 385.75 178.103 384.728C178.103 383.706 178.931 382.877 179.954 382.877C180.975 382.877 181.804 383.706 181.804 384.728Z" fill="#C16C06"/>
<path d="M220.707 384.728C220.707 386.458 219.302 387.863 217.571 387.863C215.84 387.863 214.436 386.458 214.436 384.728C214.436 382.996 215.84 381.592 217.571 381.592C219.302 381.592 220.707 382.996 220.707 384.728Z" fill="#ED8E26"/>
<path d="M219.421 384.728C219.421 385.75 218.593 386.578 217.571 386.578C216.55 386.578 215.721 385.75 215.721 384.728C215.721 383.706 216.55 382.877 217.571 382.877C218.593 382.877 219.421 383.706 219.421 384.728Z" fill="#C16C06"/>
<path d="M201.237 384.728C201.237 386.458 199.834 387.863 198.103 387.863C196.371 387.863 194.968 386.458 194.968 384.728C194.968 382.996 196.371 381.592 198.103 381.592C199.834 381.592 201.237 382.996 201.237 384.728Z" fill="#ED8E26"/>
<path d="M199.953 384.728C199.953 385.75 199.125 386.578 198.103 386.578C197.081 386.578 196.253 385.75 196.253 384.728C196.253 383.706 197.081 382.877 198.103 382.877C199.124 382.877 199.953 383.706 199.953 384.728Z" fill="#C16C06"/>
<path d="M334.979 227.054V234.389H287.839V227.054V192.331H334.979V227.054ZM321.152 223.884V202.835H301.649V223.884H321.152Z" fill="#DC3545"/>
<path d="M359.45 271.553L374.552 286.636L375.929 285.919L360.26 270.533L359.876 270.321V270.352C359.828 270.51 359.78 270.684 359.717 270.841L359.672 270.937C359.672 270.937 359.609 271.142 359.45 271.553Z" fill="#5E3A17"/>
<path d="M374.552 286.636L374.031 287.158L393.232 306.058C396.653 307.666 399.553 309.054 401.955 310.369L376.45 285.383L375.593 285.58L374.552 286.636Z" fill="#5E3A17"/>
<path d="M344.366 283.533C344.932 283.533 345.453 283.69 345.909 283.973C345.909 283.973 348.353 285.109 352.248 286.905C362.02 291.462 380.92 300.258 393.232 306.058C396.653 307.666 399.553 309.054 401.618 310.031C402.769 310.599 403.668 311.04 404.235 311.323C411.045 314.777 410.099 315.642 409.153 317.376C408.112 315.738 406.3 314.65 404.219 314.65C401.003 314.65 398.386 317.267 398.386 320.483C398.386 320.845 398.418 321.209 398.481 321.554L399.002 326.646L348.984 293.133V293.117L342.332 288.672C341.764 288.119 341.402 287.347 341.402 286.494C341.402 286.085 341.481 285.69 341.638 285.345C342.079 284.272 343.135 283.533 344.366 283.533ZM344.366 287.237C344.775 287.237 345.107 286.905 345.107 286.495C345.107 286.086 344.776 285.755 344.366 285.755C343.955 285.755 343.624 286.087 343.624 286.495C343.624 286.905 343.955 287.237 344.366 287.237ZM394.13 315.642C394.95 315.642 395.613 314.98 395.613 314.162C395.613 313.341 394.95 312.679 394.13 312.679C393.311 312.679 392.65 313.341 392.65 314.162C392.649 314.98 393.311 315.642 394.13 315.642Z" fill="#F7CD1C"/>
<path d="M344.367 284.573C343.3 284.573 342.44 285.431 342.44 286.494C342.44 287.556 343.3 288.42 344.367 288.42C345.429 288.42 346.288 287.556 346.288 286.494C346.289 285.431 345.429 284.573 344.367 284.573Z" fill="#5E3A17"/>
<path d="M393.539 312.186C392.121 312.186 390.974 313.332 390.974 314.752C390.974 316.169 392.121 317.316 393.539 317.316C394.958 317.316 396.105 316.169 396.105 314.752C396.105 313.332 394.958 312.186 393.539 312.186Z" fill="#5E3A17"/>
<path d="M342.883 280.08C342.883 280.08 345.406 278.267 348.196 275.919C350.986 273.571 354.014 270.701 355.037 268.619C355.464 267.8 356.33 267.232 357.323 267.232C358.759 267.232 359.925 268.4 359.925 269.834C359.925 269.992 359.907 270.166 359.877 270.322V270.353L359.435 271.535L359.451 271.553C358.806 273.176 356.787 278.062 352.249 286.905C348.354 285.11 345.91 283.973 345.91 283.973C345.454 283.69 344.933 283.533 344.367 283.533C343.137 283.533 342.08 284.272 341.639 285.345L340.315 284.857C341.89 281.925 342.883 280.08 342.883 280.08ZM357.323 270.196C357.527 270.196 357.702 270.039 357.702 269.834C357.702 269.63 357.528 269.455 357.323 269.455C357.118 269.455 356.959 269.63 356.959 269.834C356.959 270.039 357.118 270.196 357.323 270.196Z" fill="#F7CD1C"/>
<path d="M357.323 269.454C357.118 269.454 356.959 269.629 356.959 269.833C356.959 270.039 357.118 270.195 357.323 270.195C357.527 270.195 357.702 270.038 357.702 269.833C357.702 269.629 357.527 269.454 357.323 269.454Z" fill="#41383D"/>
<path d="M357.292 271.321C358.149 271.321 358.846 270.626 358.846 269.771C358.846 268.914 358.148 268.22 357.292 268.22C356.438 268.22 355.74 268.914 355.74 269.771C355.74 270.626 356.437 271.321 357.292 271.321Z" fill="#5E3A17"/>
<path d="M318.055 326.11L312.806 335.41L313.5 335.837L314.083 336.166L319.348 326.834L318.702 326.472L318.055 326.11Z" fill="#5E3A17"/>
<path d="M322.505 318.766L318.303 326.219L318.989 326.606L323.192 319.153L322.505 318.766Z" fill="#5E3A17"/>
<path d="M315.597 336.166L314.526 337.82C314.526 337.82 320.312 345.717 320.814 346.333H320.831C320.705 344.788 320.609 343.227 320.546 341.651C320.546 341.162 320.641 340.689 320.814 340.265L315.597 336.166Z" fill="#F7CD1C"/>
<path d="M315.218 336.877L319.048 339.226C319.048 339.226 338.563 312.316 347.816 295.261C348.211 294.535 348.605 293.826 348.984 293.133V293.117L342.332 288.672C341.764 288.119 341.402 287.347 341.402 286.494C341.402 286.085 341.481 285.69 341.638 285.345L340.314 284.857C335.93 292.959 327.041 309.447 322.138 318.606C322.138 318.606 322.532 318.701 322.911 319.033C323.558 319.583 324.14 320.78 322.754 323.272C320.531 327.245 315.218 336.877 315.218 336.877Z" fill="#F7CD1C"/>
<path d="M312.806 333.641C312.299 334.023 312.197 334.743 312.58 335.252L317.28 341.494C317.662 342.002 318.382 342.104 318.891 341.721C319.398 341.339 319.499 340.618 319.117 340.11L314.417 333.868C314.034 333.359 313.314 333.258 312.806 333.641Z" fill="#F7CD1C"/>
<path d="M329.226 340.934L326.71 339.099C326.096 338.499 325.26 338.089 324.346 338.057C324.282 338.042 324.22 338.042 324.157 338.042C322.644 338.042 321.367 338.957 320.815 340.265C320.643 340.689 320.547 341.162 320.547 341.651C320.61 343.227 320.705 344.788 320.832 346.333C320.911 347.642 321.02 348.935 321.131 350.18L327.12 343.039L329.438 344.718C329.047 343.518 328.991 342.201 329.226 340.934ZM324.156 343.039C323.383 343.039 322.769 342.424 322.769 341.651C322.769 340.895 323.383 340.265 324.156 340.265C324.929 340.265 325.543 340.895 325.543 341.651C325.543 342.424 324.929 343.039 324.156 343.039Z" fill="#5E3A17"/>
<path d="M352.109 360.596L327.298 342.627L321.13 350.18C321.225 351.235 321.319 352.245 321.429 353.239C321.476 353.742 321.539 354.246 321.587 354.721C321.981 358.284 322.407 361.326 322.706 363.437C322.802 363.989 322.88 364.479 322.943 364.904C323.115 366.025 323.226 366.654 323.226 366.654C325.166 368.718 327.308 370.311 329.532 371.508C330.227 371.887 330.952 372.234 331.659 372.532C341.306 376.648 351.947 374.173 355.542 371.193C357.119 369.9 359.058 367.803 360.933 365.565H360.949C361.47 364.95 361.989 364.305 362.495 363.675C364.15 361.641 365.84 359.226 366.912 357.806L352.109 360.596Z" fill="#F7CD1C"/>
<path d="M369.546 356.017C369.687 356.75 369.207 357.458 368.474 357.599L352.648 360.66C351.916 360.801 351.208 360.32 351.068 359.587C350.928 358.855 351.407 358.147 352.14 358.007L367.966 354.946C368.699 354.805 369.407 355.284 369.546 356.017Z" fill="#5E3A17"/>
<path d="M353.41 360.111C352.976 360.718 352.134 360.859 351.526 360.425L324.577 340.835C323.97 340.401 323.829 339.557 324.262 338.95C324.697 338.343 325.539 338.203 326.146 338.636L353.096 358.226C353.703 358.66 353.844 359.504 353.41 360.111Z" fill="#5E3A17"/>
<path d="M324.156 340.265C323.383 340.265 322.769 340.895 322.769 341.651C322.769 342.423 323.383 343.039 324.156 343.039C324.929 343.039 325.543 342.424 325.543 341.651C325.543 340.895 324.929 340.265 324.156 340.265Z" fill="white"/>
<path d="M436.705 368.189H401.447L399.915 362.118H438.24L436.705 368.189Z" fill="#755027"/>
<path d="M466.402 388.192C430.423 389.125 408.767 389.125 372.787 388.192H372.769C364.031 387.965 360.283 383.361 360.283 377.758C360.283 372.154 364.031 367.55 372.769 367.323H372.787C408.767 366.391 430.423 366.391 466.402 367.323C475.139 367.55 478.521 372.154 478.521 377.758C478.521 383.361 475.139 387.965 466.402 388.192Z" fill="#5E3A17"/>
<path d="M462.931 373.567H374.648V381.947H462.931V373.567Z" fill="#ED8E26"/>
<path d="M378.788 377.758C378.788 381.455 375.792 384.449 372.095 384.449C368.399 384.449 365.404 381.454 365.404 377.758C365.404 374.06 368.399 371.066 372.095 371.066C375.792 371.066 378.788 374.06 378.788 377.758Z" fill="#C16C06"/>
<path d="M376.829 377.758C376.829 380.369 374.709 382.489 372.095 382.489C369.483 382.489 367.363 380.369 367.363 377.758C367.363 375.144 369.483 373.025 372.095 373.025C374.71 373.026 376.829 375.144 376.829 377.758Z" fill="#ED8E26"/>
<path d="M473.133 377.758C473.133 381.384 470.192 384.324 466.567 384.324C462.941 384.324 459.999 381.385 459.999 377.758C459.999 374.13 462.941 371.192 466.567 371.192C470.192 371.192 473.133 374.13 473.133 377.758Z" fill="#C16C06"/>
<path d="M471.21 377.758C471.21 380.321 469.131 382.4 466.567 382.4C464 382.4 461.922 380.321 461.922 377.758C461.922 375.191 464 373.114 466.567 373.114C469.131 373.115 471.21 375.191 471.21 377.758Z" fill="#ED8E26"/>
<path d="M449.15 335.137L447.134 313.07C446.765 309.023 443.372 305.924 439.306 305.924H406.33C403.317 305.924 400.625 307.797 399.577 310.619L393.932 325.819C392.425 329.874 391.653 334.166 391.653 338.494V356.089L452.072 357.093L449.15 335.137Z" fill="#5E3A17"/>
<path d="M425.275 332.795H398.323C397.036 332.795 396.135 331.525 396.559 330.312L402.904 312.185C403.542 310.358 405.265 309.137 407.199 309.137H425.274V332.795H425.275Z" fill="#D9E5F9"/>
<path d="M410.114 309.138L397.006 329.038L396.56 330.312C396.136 331.526 397.037 332.795 398.324 332.795H405.058L419.523 309.137H410.114V309.138Z" fill="white"/>
<path d="M423.205 309.138L409.806 332.795H412.795L425.275 310.968V309.138H423.205Z" fill="white"/>
<path d="M425.275 335.299V340.277L423.529 341.1C420.931 342.325 418.799 344.36 417.455 346.903L414.394 352.697H397.22C395.628 352.697 394.337 351.405 394.337 349.814V337.904C394.337 336.51 395.464 335.381 396.858 335.376L425.275 335.299Z" fill="#D9E5F9"/>
<path d="M408.641 335.299L398.134 352.697H401.316L411.928 335.335L408.641 335.299Z" fill="white"/>
<path d="M394.338 337.904V349.813C394.338 350.052 394.375 350.28 394.431 350.501L404.024 335.358L396.859 335.376C395.465 335.381 394.338 336.51 394.338 337.904Z" fill="white"/>
<path d="M445.792 335.35L443.657 313.399C443.422 310.982 441.39 309.138 438.961 309.138H428.819V344.655L445.792 335.35Z" fill="#D9E5F9"/>
<path d="M438.961 309.138L428.819 336.01V342.838L441.373 309.808C440.664 309.384 439.842 309.138 438.961 309.138Z" fill="white"/>
<path d="M391.653 356.089C393.353 359.764 397.032 362.118 401.082 362.118H461.685C465.534 362.118 468.653 358.997 468.653 355.147V346.482C468.653 339.913 463.329 334.587 456.76 334.587H449.416C448.169 334.587 446.936 334.847 445.793 335.35L425.456 344.322C423.424 345.219 421.715 346.716 420.557 348.613L416.911 354.588C416.341 355.52 415.328 356.089 414.236 356.089H391.653Z" fill="#F7CD1C"/>
<path d="M458.629 339.363V358.051C458.629 358.995 459.366 359.76 460.273 359.76C461.185 359.76 461.923 358.995 461.923 358.051V339.363C461.923 338.42 461.185 337.656 460.273 337.656C459.366 337.656 458.629 338.42 458.629 339.363Z" fill="#FBB020"/>
<path d="M450.865 339.363V358.051C450.865 358.995 451.602 359.76 452.515 359.76C453.427 359.76 454.164 358.995 454.164 358.051V339.363C454.164 338.42 453.427 337.656 452.515 337.656C451.602 337.656 450.865 338.42 450.865 339.363Z" fill="#FBB020"/>
<path d="M443.107 340.762V358.051C443.107 358.995 443.844 359.76 444.756 359.76C445.669 359.76 446.406 358.995 446.406 358.051V340.762C446.406 339.818 445.668 339.055 444.756 339.055C443.845 339.055 443.107 339.818 443.107 340.762Z" fill="#FBB020"/>
<path d="M435.35 345.207V358.05C435.35 358.994 436.082 359.759 436.995 359.759C437.908 359.759 438.645 358.994 438.645 358.05V345.207C438.645 344.266 437.908 343.5 436.995 343.5C436.081 343.5 435.35 344.266 435.35 345.207Z" fill="#FBB020"/>
<path d="M427.586 349.561V358.05C427.586 358.994 428.323 359.759 429.236 359.759C430.149 359.759 430.885 358.994 430.885 358.05V349.561C430.885 348.618 430.149 347.855 429.236 347.855C428.323 347.855 427.586 348.618 427.586 349.561Z" fill="#FBB020"/>
<path d="M352.248 286.905L348.984 293.118L350.119 293.894L352.758 287.143L352.248 286.905Z" fill="#FBB020"/>
<path d="M315.848 335.77L319.209 339.004L319.781 338.209L316.027 335.412L315.848 335.77Z" fill="#FBB020"/>
<path fill-rule="evenodd" clip-rule="evenodd" d="M95.986 266.403C97.368 268.035 98.838 269.573 100.279 271.11C99.829 271.798 99.18 272.15 98.934 272.958C98.643 273.915 98.378 275.334 98.455 276.525C98.553 278.066 98.533 279.125 98.149 280.899C97.892 281.482 97.533 281.407 97.454 281.391C96.143 277.93 94.939 273.734 93.529 269.844C93.502 269.768 92.841 268.176 92.841 268.176C92.995 267.992 94.205 267.249 94.414 267.131C94.987 266.801 95.406 266.573 95.986 266.403Z" fill="#FFBD7B"/>
<path fill-rule="evenodd" clip-rule="evenodd" d="M97.454 281.391L92.84 268.176C94.324 268.926 98.868 278.063 97.454 281.391Z" fill="#5E3A17"/>
<path fill-rule="evenodd" clip-rule="evenodd" d="M95.986 266.403C96.58 266.927 98.677 269.664 100.279 271.11C98.31 270.265 96.623 268.518 95.986 266.403Z" fill="#F2B891"/>
<path fill-rule="evenodd" clip-rule="evenodd" d="M84.503 205.612C89.551 205.828 92.729 210.518 95.826 214.241C101.097 220.581 106.301 226.437 111.394 233.246C112.632 234.902 113.818 236.638 114.946 238.401C116.506 240.837 118.314 243.451 118.104 247.047C117.946 249.753 116.563 252.151 115.215 254.408C111.996 259.8 107.495 264.48 103.318 269.438C103.025 269.787 102.622 270.265 102.081 270.907C101.847 271.185 100.818 272.38 100.845 272.377C100.56 272.421 98.839 271.088 98.325 270.68C95.917 268.77 93.641 266.992 91.3 265.265C94.923 258.158 98.909 251.315 102.063 243.87C100.137 241.371 98.077 239.398 95.816 236.775C94.546 235.301 92.7 233.125 91.225 231.343C90.767 230.788 89.985 229.969 89.834 229.516C89.572 228.716 89.744 227.403 89.701 226.35C89.575 223.447 89.282 219.998 88.572 216.804C87.629 212.564 86.086 209.107 84.503 205.612Z" fill="#ED8E26"/>
<path d="M89.702 226.35C89.745 227.403 89.573 228.715 89.835 229.516C89.986 229.968 90.768 230.788 91.226 231.343C92.702 233.125 94.547 235.301 95.817 236.775C98.077 239.398 100.137 241.372 102.064 243.87C98.91 251.315 94.924 258.158 91.301 265.265C91.416 265.35 91.531 265.437 91.645 265.522C92.306 264.932 93.016 264.387 93.771 263.897C97.32 256.981 101.184 250.293 104.258 243.036C102.332 240.536 100.272 238.562 98.012 235.94C96.741 234.466 94.896 232.29 93.42 230.507C92.962 229.954 92.179 229.133 92.03 228.68C91.767 227.881 91.94 226.569 91.894 225.514C91.771 222.612 91.478 219.162 90.768 215.97C89.957 212.328 88.704 209.266 87.364 206.261C86.477 205.892 85.531 205.656 84.504 205.612C86.087 209.107 87.63 212.564 88.574 216.804C89.283 219.998 89.576 223.448 89.702 226.35Z" fill="#D87819"/>
<path fill-rule="evenodd" clip-rule="evenodd" d="M90.379 227.249C90.422 228.35 90.21 229.724 90.508 230.557C90.678 231.03 91.583 231.88 92.112 232.456C93.197 233.633 95.621 236.545 95.621 236.545C97.016 234.503 99.206 209.189 85.939 205.801C87.752 209.441 88.085 212.855 89.148 217.281C89.947 220.613 90.26 224.215 90.379 227.249Z" fill="#D87819"/>
<path d="M104.044 243.537L105.514 240.238L102.164 243.656L104.044 243.537Z" fill="#D87819"/>
<path fill-rule="evenodd" clip-rule="evenodd" d="M117.189 396.911C117.189 396.911 119.201 406.801 121.197 408.705C121.197 408.705 117.405 411.44 109.834 406.648L107.299 397.782L117.189 396.911Z" fill="#FFBD7B"/>
<path fill-rule="evenodd" clip-rule="evenodd" d="M107.299 397.782C108.444 399.953 114.929 400.549 117.393 398.2L107.299 397.782Z" fill="#5E3A17"/>
<path fill-rule="evenodd" clip-rule="evenodd" d="M108.169 401.591C112.086 401.545 115.977 401.528 119.687 401.689C120.093 401.624 119.817 402.245 119.901 402.497C120.735 404.651 123.105 406.234 125.397 407.105C128.909 408.441 133.302 408.713 133.27 413.314C133.026 413.687 132.224 413.525 131.627 413.53C123.017 413.61 114.531 413.403 105.885 413.466C105.95 411.306 106.159 409.377 106.581 407.483C107 405.584 107.435 403.762 107.968 401.9C107.96 401.726 108.039 401.636 108.169 401.591Z" fill="#131E66"/>
<path fill-rule="evenodd" clip-rule="evenodd" d="M71.851 396.97C71.851 396.97 73.864 406.861 75.859 408.764C75.859 408.764 72.068 411.5 64.497 406.709L61.962 397.842L71.851 396.97Z" fill="#FFBD7B"/>
<path fill-rule="evenodd" clip-rule="evenodd" d="M61.961 397.841C63.107 400.012 69.455 400.274 72.049 398.259L61.961 397.841Z" fill="#5E3A17"/>
<path fill-rule="evenodd" clip-rule="evenodd" d="M62.831 401.65C66.748 401.604 70.638 401.587 74.349 401.748C74.754 401.684 74.478 402.305 74.562 402.558C75.396 404.712 80.131 406.292 82.423 407.162C85.935 408.499 91.176 408.768 91.144 413.369C90.9 413.742 90.099 413.58 89.502 413.586C80.892 413.664 70.607 413.758 61.96 413.82C61.96 413.82 61.779 407.64 62.628 401.959C62.655 401.786 62.7 401.696 62.831 401.65Z" fill="#131E66"/>
<path d="M118.296 397.974C116.18 385.571 113.8 373.025 111.765 360.342C110.756 354.043 109.761 347.722 108.609 341.419C107.456 335.1 106.606 328.716 105.453 322.425C104.342 316.347 103.194 310.047 102.007 303.788C99.617 291.19 97.709 278.85 93.513 268.095C92.439 265.342 91.183 262.697 89.551 260.423L57.735 260.465C56.298 262.661 55.065 265.065 54.274 267.931C52.817 273.208 52.469 279.46 52.479 286.216C52.487 292.804 52.62 299.394 52.941 305.861C53.9 325.172 55.594 343.429 57.166 362.064C58.178 374.056 59.252 386.061 59.842 398.276L74.118 398.258C74.111 397.968 74.118 397.631 74.104 397.317C74.083 396.803 74.102 396.195 74.102 395.669C74.092 387.977 73.86 380.335 73.999 372.94C74.238 360.152 74.19 346.893 74.529 334.297C74.819 323.544 75.181 312.994 75.797 302.82C75.923 300.751 75.924 298.671 76.225 296.653C80.704 314.351 85.146 331.768 90.055 348.829C94.895 365.648 100.683 381.88 105.843 398.215L118.322 398.199C118.322 398.199 118.339 398.109 118.296 397.974Z" fill="#131E66"/>
<path d="M105.844 398.214L109.829 398.21C109.712 397.85 109.527 397.392 109.414 396.982C108.159 392.462 106.952 387.601 105.827 383.365C104.376 377.891 103.072 372.863 101.729 367.741C98.967 357.199 96.195 346.992 93.533 336.492C88.384 316.178 82.901 296.276 77.654 276.002C77.364 274.878 77.288 273.959 76.56 274.426C76.287 274.759 76.532 276.122 76.563 276.864C76.604 277.849 76.591 278.795 76.566 279.587C76.449 283.414 76.369 286.609 76.216 290.127C76.139 291.883 75.976 294.975 76.225 296.651C80.704 314.349 85.146 331.766 90.055 348.827C94.896 365.647 100.684 381.879 105.844 398.214Z" fill="#091238"/>
<path d="M59 347.014C58.462 340.551 58.081 334.061 57.769 327.4C57.467 320.899 57.15 314.148 57.141 307.328C57.137 303.895 57.132 300.419 57.127 296.987C57.123 293.579 57.376 290.209 57.371 286.875C57.367 283.703 57.547 280.277 57.788 276.99C58.237 270.856 58.921 265.422 60.373 260.462L57.734 260.465C56.297 262.661 55.064 265.065 54.273 267.931C52.816 273.208 52.468 279.46 52.478 286.216C52.486 292.804 52.619 299.394 52.94 305.861C53.899 325.172 55.593 343.429 57.165 362.064C58.177 374.056 59.251 386.061 59.841 398.276L63.6 398.271C62.045 387.923 61.122 377.288 60.316 366.479C59.835 360.028 59.534 353.423 59 347.014Z" fill="#091238"/>
<path fill-rule="evenodd" clip-rule="evenodd" d="M94.67 269.144C81.178 271.923 64.513 272.124 52.385 269.844C53.774 256.165 51.588 240.335 50.803 226.945C49.981 212.89 56.902 203.731 69.745 201.437C72.389 200.964 76.232 200.92 78.651 201.716C81.898 202.784 86.165 206.49 87.984 209.288C90.24 212.756 91.245 217.322 91.678 222.536C92.09 227.507 91.409 232.788 91.644 237.826C91.889 243.086 93.166 248.338 93.872 253.249C94.661 258.734 94.953 264.119 94.67 269.144Z" fill="#ED8E26"/>
<path d="M71.415 216.958C70.203 211.985 69.167 205.901 66.356 202.259C55.077 205.107 50.057 214.681 50.805 227.965C51.59 241.898 53.776 258.37 52.389 272.605C60.004 274.095 69.406 274.566 78.689 273.995C77.712 261.316 76.259 248.14 74.607 235.941C73.721 229.409 72.841 222.815 71.415 216.958Z" fill="#F7CD1C"/>
<path d="M53.906 227.959C53.216 215.721 57.428 206.636 66.917 203.055C66.737 202.779 66.552 202.512 66.357 202.259C55.078 205.107 50.058 214.681 50.806 227.965C51.591 241.898 53.777 258.37 52.39 272.605C58.375 273.777 65.464 274.315 72.732 274.215C66.562 274.144 60.621 273.604 55.492 272.601C56.876 258.365 54.69 241.893 53.906 227.959Z" fill="#E2BA13"/>
<path d="M95.429 255.335C94.649 250.224 93.239 244.76 92.968 239.286C92.709 234.043 93.462 228.549 93.007 223.377C92.53 217.952 91.797 213.178 89.306 209.57C87.355 206.744 82.483 203.057 78.941 201.824C85.73 212.937 88.304 235.546 84.596 273.546C88.63 273.156 92.577 272.601 96.307 271.876C96.621 266.647 96.298 261.043 95.429 255.335Z" fill="#F7CD1C"/>
<path fill-rule="evenodd" clip-rule="evenodd" d="M81.519 198.618L81.696 203.64C79.808 208.414 72.838 208.284 69.798 206.122C67.819 204.716 68.075 203.56 68.011 201.504C67.926 198.719 67.806 195.865 67.824 193.169C66.841 193.146 65.272 192.516 64.55 191.164C64.006 190.137 64.287 188.725 65.44 188.294C63.513 182.885 64.005 177.902 69.159 174.794C74.007 171.87 80.167 172.583 83.305 176.88C87.416 182.512 88.553 190.13 86.998 194.341C86.282 196.285 84.425 198.603 81.519 198.618Z" fill="#FFBD7B"/>
<path fill-rule="evenodd" clip-rule="evenodd" d="M81.144 169.696C79.688 169.762 77.207 170.594 75.045 171.475C73.4 172.142 71.908 172.35 70.402 173.056C68.025 174.172 66.817 175.146 66.035 176.492C65.704 177.06 65.693 177.852 65.206 178.597C64.89 179.075 64.514 179.054 63.793 180.046C61.898 182.646 62.646 186.017 65.44 188.296C66.189 188.358 66.516 188.337 67.155 188.66C68.404 189.294 69.442 191.495 70.553 190.888C71.848 190.181 70.149 187.63 70.096 185.965C70.032 183.948 71.702 182.405 72.016 180.735C72.168 179.915 72.146 179.184 72.06 178.489C74.458 180.204 78.336 179.808 82.286 177.458C82.58 177.282 82.892 177.06 83.206 176.81C82.498 174.469 81.887 172.081 81.144 169.696Z" fill="#131E66"/>
<path fill-rule="evenodd" clip-rule="evenodd" d="M74.131 196.424C76.139 197.694 79.27 198.803 81.52 198.617L81.613 201.254C80.129 201.412 75.89 200.895 74.131 196.424Z" fill="#C6915E"/>
<path fill-rule="evenodd" clip-rule="evenodd" d="M85.924 180.713C85.966 181.029 84.995 181.408 83.76 181.554C82.527 181.703 81.494 181.567 81.455 181.248C81.413 180.931 82.381 180.555 83.617 180.406C84.852 180.26 85.884 180.395 85.924 180.713Z" fill="#131E66"/>
<path fill-rule="evenodd" clip-rule="evenodd" d="M85.585 184.228C85.714 184.759 85.499 185.268 85.106 185.362C84.711 185.456 84.283 185.101 84.154 184.569C84.023 184.038 84.237 183.529 84.632 183.435C85.023 183.34 85.455 183.695 85.585 184.228Z" fill="#131E66"/>
<path fill-rule="evenodd" clip-rule="evenodd" d="M79.159 181.875C79.288 182.166 78.458 182.792 77.317 183.267C76.169 183.745 75.137 183.892 75.011 183.599C74.885 183.304 75.712 182.679 76.857 182.201C78.003 181.725 79.033 181.579 79.159 181.875Z" fill="#131E66"/>
<path fill-rule="evenodd" clip-rule="evenodd" d="M78.342 186.343C78.474 186.874 78.263 187.382 77.866 187.477C77.474 187.571 77.044 187.216 76.915 186.683C76.782 186.153 76.999 185.645 77.394 185.549C77.788 185.456 78.214 185.81 78.342 186.343Z" fill="#131E66"/>
<path d="M82.603 189.418C82.622 189.414 82.639 189.409 82.658 189.402C83.145 189.204 83.454 188.929 83.607 188.558C83.912 187.812 83.494 186.877 82.967 185.694C82.63 184.942 82.247 184.089 81.991 183.145C81.943 182.975 81.761 182.868 81.588 182.917C81.411 182.964 81.305 183.141 81.353 183.315C81.624 184.305 82.016 185.182 82.362 185.958C82.81 186.958 83.198 187.821 82.999 188.313C82.914 188.513 82.723 188.673 82.408 188.799C82.239 188.867 82.16 189.057 82.229 189.225C82.288 189.372 82.449 189.451 82.603 189.418Z" fill="#5E3A17"/>
<path d="M82.87 193.539C82.582 193.531 82.256 193.485 81.89 193.379C81.737 193.333 81.649 193.173 81.693 193.024C81.736 192.871 81.901 192.786 82.053 192.831C83.693 193.3 84.243 192.37 84.268 192.329C84.345 192.193 84.522 192.142 84.663 192.218C84.805 192.292 84.852 192.464 84.78 192.602C84.753 192.649 84.234 193.563 82.87 193.539Z" fill="#5E3A17"/>
<path d="M85.659 177.71C85.659 177.71 78.821 180.709 71.776 180.919C64.733 181.129 62.595 183.53 62.595 183.53L61.836 180.857C60.064 174.623 63.758 168.155 70.087 166.41C76.417 164.666 82.984 168.303 84.756 174.536L85.659 177.71Z" fill="#FBB020"/>
<path d="M69.027 166.759C68.657 166.899 68.298 167.056 67.95 167.228C73.541 166.798 78.902 170.452 80.527 176.17L81.396 179.226C82.231 178.976 82.972 178.729 83.593 178.508L82.754 175.556C81.018 169.447 75.019 165.692 69.027 166.759Z" fill="#DB8914"/>
<path d="M64.13 180.455C63.867 180.528 63.593 180.377 63.518 180.117L63.187 178.952C63.113 178.691 63.268 178.423 63.532 178.35C63.796 178.277 64.07 178.43 64.144 178.69L64.475 179.855C64.549 180.112 64.395 180.384 64.13 180.455Z" fill="white"/>
<path d="M65.614 180.046C65.35 180.12 65.075 179.969 65.001 179.708L64.67 178.543C64.596 178.282 64.75 178.013 65.014 177.94C65.279 177.867 65.553 178.019 65.628 178.279L65.959 179.444C66.032 179.704 65.876 179.975 65.614 180.046Z" fill="white"/>
<path d="M67.096 179.638C66.831 179.711 66.557 179.56 66.484 179.299L66.152 178.134C66.078 177.875 66.233 177.607 66.497 177.533C66.761 177.46 67.035 177.612 67.11 177.871L67.44 179.036C67.514 179.294 67.36 179.566 67.096 179.638Z" fill="white"/>
<path d="M61.629 182.965C61.767 183.489 62.319 183.802 62.861 183.662L85.491 177.878C86.033 177.739 86.361 177.203 86.224 176.677C86.085 176.154 85.533 175.841 84.991 175.979L62.362 181.763C61.819 181.902 61.491 182.441 61.629 182.965Z" fill="#DB8914"/>
<path d="M71.663 183.124L88.366 178.664C89.019 178.498 89.437 177.935 89.298 177.41C89.159 176.884 88.536 176.813 87.863 176.76C87.198 176.705 85.646 176.635 85.646 176.635L64.782 182.159C64.782 182.159 70.26 183.484 71.663 183.124Z" fill="#DB8914"/>
<path fill-rule="evenodd" clip-rule="evenodd" d="M76.608 205.455C75.181 206.89 78.62 212.035 79.581 212.043C80.21 212.047 82.807 208.283 83.861 206.866C84.303 206.271 84.899 205.492 84.792 204.679C84.686 203.883 83.339 202.704 82.794 202.202C82.253 201.704 81.496 202.252 80.774 202.674C80.304 202.95 77.292 204.871 76.608 205.455Z" fill="white"/>
<path fill-rule="evenodd" clip-rule="evenodd" d="M76.004 205.443C77.582 206.869 74.338 212.447 73.339 212.506C72.687 212.545 66.94 207.484 65.755 206.058C65.256 205.457 64.587 204.674 64.647 203.817C64.706 202.974 66.028 201.668 66.563 201.111C67.093 200.561 67.917 201.094 68.691 201.498C69.201 201.762 75.26 204.867 76.004 205.443Z" fill="white"/>
<path fill-rule="evenodd" clip-rule="evenodd" d="M63.983 286.738C63.93 287.151 63.718 288.115 62.864 288.077C62.091 288.043 61.241 285.806 60.583 284.639C59.889 283.411 59.398 281.993 58.591 280.815C58.019 279.983 57.045 279.226 56.275 278.593C55.452 277.915 54.349 277.441 53.765 276.731C52.467 275.155 52.423 272.768 52.145 270.8C54.436 269.706 57.733 267.998 59.638 266.818C60.187 268.35 61.474 269.15 62.619 270.135C64.229 271.518 65.64 272.635 67.202 274.33C67.983 275.179 68.805 276.057 69.16 277.058C69.52 278.062 69.42 279.196 69.322 280.225C69.229 281.176 69.229 282.733 68.356 282.723C67.574 282.712 67.708 280.841 67.321 280.019C66.471 278.226 64.985 277.401 64.891 277.429C65.602 279.012 66.787 281.279 66.645 283.132C66.576 284.067 65.606 288.936 63.983 286.738Z" fill="#FFBD7B"/>
<path fill-rule="evenodd" clip-rule="evenodd" d="M59.639 266.818C58.771 268.554 54.764 271.546 52.146 270.8C53.211 270.235 58.509 267.56 59.639 266.818Z" fill="#F2B891"/>
<path fill-rule="evenodd" clip-rule="evenodd" d="M58.564 280.727C57.476 279.513 56.73 278.926 55.911 278.402C54.216 277.316 52.498 276.118 52.455 273.235C53.86 276.733 56.903 277.78 58.564 280.727Z" fill="#5E3A17"/>
<path fill-rule="evenodd" clip-rule="evenodd" d="M67.854 282.272C67.223 281.196 67.254 279.841 66.541 278.785C65.877 277.802 65.035 277.615 64.891 277.428C65.893 277.179 66.494 277.45 67.287 278.275C68.301 279.326 67.023 280.732 67.854 282.272Z" fill="#5E3A17"/>
<path fill-rule="evenodd" clip-rule="evenodd" d="M63.983 286.738C63.636 284.569 62.568 281.661 61.525 279.739C63.234 281.681 63.93 284.575 63.983 286.738Z" fill="#5E3A17"/>
<path fill-rule="evenodd" clip-rule="evenodd" d="M63.2 278.618C65.045 280.042 66.707 284.449 65.732 286.458C65.891 284.694 64.885 280.901 63.2 278.618Z" fill="#5E3A17"/>
<path fill-rule="evenodd" clip-rule="evenodd" d="M42.796 246.93C49.999 253.022 55.945 260.224 62.15 267.198C58.986 270.808 55.823 274.42 52.002 277.294C44.751 271.678 37.627 265.047 31.806 257.645C29.493 254.706 26.48 251.49 25.705 247.256C25.616 246.774 25.624 245.299 25.73 244.583C26.343 240.411 29.285 236.071 31.427 232.485C35.762 225.227 40.865 218.6 46.963 213.214C50.247 210.315 53.489 206.797 58.003 205.799C63.35 204.619 64.3 211.985 62.405 216.017C56.864 227.804 49.2 237.62 42.796 246.93Z" fill="#F2B033"/>
<path d="M60.684 206.02C62.277 208.196 62.248 212.22 61.018 214.837C55.483 226.609 47.833 236.414 41.434 245.713C41.914 246.062 42.373 246.436 42.813 246.831C42.83 246.831 42.849 246.831 42.866 246.831C49.256 237.548 56.885 227.762 62.406 216.016C63.925 212.787 63.614 207.422 60.684 206.02Z" fill="#E2801E"/>
<path d="M34.111 257.912C31.799 254.972 28.787 251.757 28.012 247.522C27.924 247.04 27.931 245.566 28.038 244.849C28.649 240.678 31.592 236.337 33.734 232.75C38.07 225.492 43.17 218.865 49.27 213.479C52.554 210.58 55.796 207.062 60.31 206.064C60.428 206.039 60.54 206.023 60.653 206.004C59.931 205.667 59.053 205.566 58.004 205.797C53.489 206.795 50.248 210.313 46.964 213.212C40.866 218.599 35.764 225.226 31.428 232.483C29.286 236.07 26.344 240.409 25.731 244.581C25.625 245.297 25.617 246.772 25.706 247.254C26.48 251.488 29.494 254.704 31.807 257.643C36.482 263.59 42.002 269.025 47.75 273.85C42.834 268.865 38.122 263.01 34.111 257.912Z" fill="#E2801E"/>
<path d="M42.796 246.93L38.635 243.817L44.219 244.882L42.796 246.93Z" fill="#E2801E"/>
<path fill-rule="evenodd" clip-rule="evenodd" d="M184.39 396.555C184.39 396.555 186.404 406.598 188.398 408.531C188.398 408.531 184.607 411.31 177.036 406.444L174.502 397.44L184.39 396.555Z" fill="#F9E2C7"/>
<path fill-rule="evenodd" clip-rule="evenodd" d="M174.502 397.438C175.647 399.643 182.805 399.907 184.593 397.862L174.502 397.438Z" fill="#D8B99C"/>
<path fill-rule="evenodd" clip-rule="evenodd" d="M175.372 401.307C179.289 401.26 183.179 401.243 186.889 401.407C187.294 401.342 187.018 401.971 187.103 402.228C187.936 404.416 190.306 406.022 192.599 406.906C196.11 408.264 200.503 408.539 200.471 413.21C200.227 413.589 199.425 413.426 198.829 413.431C190.219 413.512 181.353 413.303 172.706 413.365C172.773 411.173 173.361 409.212 173.782 407.289C174.202 405.362 174.636 403.511 175.169 401.62C175.162 401.444 175.242 401.353 175.372 401.307Z" fill="#C84513"/>
<path fill-rule="evenodd" clip-rule="evenodd" d="M140.977 396.309C140.977 396.309 141.511 403.206 142.489 406.483C140.21 408.619 132.338 411.283 130.025 407.373C130.681 407.131 131.223 406.499 131.463 405.289C131.964 402.719 131.089 400.31 130.79 397.109C134.14 397.177 137.755 396.361 140.977 396.309Z" fill="#F9E2C7"/>
<path fill-rule="evenodd" clip-rule="evenodd" d="M141.115 397.853C140.047 399.2 134.177 401.085 130.79 397.94C130.79 397.94 140.88 396.312 140.977 396.309" fill="#D8B99C"/>
<path fill-rule="evenodd" clip-rule="evenodd" d="M142.442 401.315C138.512 401.28 134.611 401.275 130.891 401.447C130.486 401.382 130.765 402.014 130.68 402.271C129.851 404.467 127.479 406.086 125.181 406.977C121.664 408.347 117.259 408.637 117.302 413.32C117.548 413.698 118.353 413.533 118.952 413.537C127.584 413.593 136.476 413.361 145.146 413.402C145.074 411.2 144.479 409.237 144.051 407.311C143.626 405.377 143.185 403.523 142.647 401.629C142.653 401.452 142.571 401.361 142.442 401.315Z" fill="#C84513"/>
<path fill-rule="evenodd" clip-rule="evenodd" d="M118.987 264.113C132.642 266.305 146.069 268.73 159.777 270.875C162.539 294.932 167.339 308.967 172.034 331.332C176.727 353.723 181.789 377.02 188.306 397.857L172.603 397.878C158.465 373.016 139.664 288.71 139.728 290.88C140.279 309.759 139.581 316.873 140.307 335.729C141.145 357.48 141.474 376.278 142.102 397.919L128.262 397.938C121.272 364.826 118.637 341.539 117.025 302.547C116.492 289.631 116.943 276.144 118.874 264.447C118.866 264.289 118.855 264.129 118.987 264.113Z" fill="#131E66"/>
<path d="M139.101 277.701C139.242 282.485 139.649 287.423 140.191 292.435C143.154 304.014 159.794 375.35 172.605 397.879L176.845 397.874C162.637 371.492 139.037 275.559 139.101 277.701Z" fill="#091238"/>
<path d="M123.665 265.438C123.655 265.279 123.644 265.12 123.775 265.104C135.843 267.042 147.741 269.15 159.802 271.097C159.794 271.022 159.785 270.95 159.776 270.875C146.069 268.73 132.642 266.306 118.986 264.113C118.854 264.129 118.865 264.289 118.875 264.448C116.944 276.145 116.493 289.632 117.026 302.548C118.638 341.54 121.273 364.827 128.263 397.939L132.844 397.932C126.012 365.35 123.411 342.136 121.815 303.539C121.284 290.622 121.735 277.136 123.665 265.438Z" fill="#091238"/>
<path d="M118.826 263.733L160.577 275.96C160.577 275.96 151.679 279.4 134.808 273.759C120.747 269.054 118.826 263.733 118.826 263.733Z" fill="#091238"/>
<path fill-rule="evenodd" clip-rule="evenodd" d="M225.364 256.574C225.713 259.337 215.965 263.232 213.229 263.51C212.45 262.529 212.067 261.226 211.892 259.747C214.614 258.924 217.92 257.883 221.072 257.065C222.627 256.66 224.045 256.153 225.364 256.574Z" fill="#EDBCBC"/>
<path fill-rule="evenodd" clip-rule="evenodd" d="M224.773 256.454C223.357 258.55 212.947 263.51 211.89 260.112C211.7 259.493 213.725 259.022 214.554 258.775C215.598 258.462 216.591 258.202 217.665 257.92C220.735 257.108 222.926 256.466 224.773 256.454Z" fill="#DD9999"/>
<path fill-rule="evenodd" clip-rule="evenodd" d="M174.112 214.518C181.523 217.56 181.862 229.376 180.758 238.545C179.817 246.325 177.811 253.138 175.743 258.097C187.05 257.433 199.37 257.598 211.443 257.563C211.758 258.457 214.032 263.918 214.032 263.918C213.453 264.452 196.695 269.238 190.721 270.339C186.517 271.11 181.542 271.789 177.543 271.934C172.195 272.126 167.499 271.815 164.501 270.008C167.623 258.806 172.434 246.81 175.117 234.546C176.568 227.946 176.898 219.994 174.26 214.882C174.208 214.78 174.134 214.7 174.134 214.7L174.112 214.518Z" fill="#ED8E26"/>
<path d="M190.718 268.471C186.513 269.245 181.536 269.922 177.54 270.067C172.457 270.25 167.968 269.976 164.962 268.399C164.806 268.936 164.651 269.474 164.499 270.008C167.498 271.816 172.191 272.126 177.542 271.934C181.538 271.791 186.515 271.109 190.719 270.339C196.694 269.241 213.452 264.451 214.027 263.917C214.027 263.917 213.751 263.246 213.374 262.337C210.158 263.519 196.087 267.484 190.718 268.471Z" fill="#D87819"/>
<path fill-rule="evenodd" clip-rule="evenodd" d="M168.4 263.122C167.385 266.669 166.223 270.102 165.291 273.458C165.393 273.375 165.497 273.299 165.601 273.218C168.917 269.265 170.808 264.263 172.62 258.443C173.986 254.057 175.126 249.248 175.873 244.412C176.61 239.63 177.326 233.952 177.211 228.65C177.102 223.415 176.797 217.973 174.038 214.412C174.038 214.412 173.885 214.389 173.924 214.627C177.163 220.516 175.328 229.384 174.225 236.534C172.773 245.949 170.797 254.755 168.4 263.122Z" fill="#D87819"/>
<path d="M204.838 257.169L206.346 254.439L204.271 254.102L204.838 257.169Z" fill="#BBF2D1"/>
<path d="M208.345 229.058L204.281 254.099L206.355 254.435L210.419 229.395L208.345 229.058Z" fill="#131E66"/>
<path d="M208.581 227.648C208.674 227.074 209.212 226.686 209.786 226.778C210.359 226.871 210.747 227.412 210.653 227.985L210.423 229.401L208.35 229.063L208.581 227.648Z" fill="white"/>
<path d="M198.933 270.945C199.633 271.771 200.952 272.114 201.889 271.695L230.416 256.42C231.525 255.745 231.983 254.342 231.426 253.305L220.151 235.824C219.478 234.956 217.943 234.933 216.733 235.754L185.4 255.154C184.363 255.723 184.194 256.702 185.012 257.358L198.933 270.945Z" fill="#5E3A17"/>
<path fill-rule="evenodd" clip-rule="evenodd" d="M156.254 203.593C157.372 208.273 160.762 212.046 165.789 211.164C168.096 210.76 168.867 209.414 168.867 209.414C170.243 210.291 171.415 211.188 172.329 212.111C175.104 214.902 176.019 218.885 176.027 224.234C176.036 230.956 174.757 237.328 173.597 242.905C171.224 254.311 167.61 266.073 165.055 276.442C156.483 275.639 148.489 273.324 140.793 271.023C133.1 268.723 125.48 266.631 118.433 263.559C121.118 248.828 126.203 233.024 131.186 219.387C132.872 214.764 134.976 210.231 137.846 207.114C141.779 202.841 149.16 201.356 156.254 203.593Z" fill="#ED8E26"/>
<path d="M172.354 212.032C171.709 211.381 170.93 210.742 170.051 210.114C170.533 219.012 168.731 238.655 155.231 276.701C158.348 277.355 161.532 277.876 164.798 278.182C167.412 267.57 171.111 255.529 173.541 243.856C174.726 238.148 176.036 231.626 176.026 224.745C176.02 219.272 175.195 214.888 172.354 212.032Z" fill="#F7CD1C"/>
<path d="M154.372 203.087C147.853 201.605 140.543 203.095 136.95 207.22C134.099 210.491 131.858 215.05 130.132 219.783C125.032 233.741 119.829 249.916 117.08 264.994C124.292 268.139 132.091 270.28 139.966 272.634C142.406 273.363 144.875 274.093 147.383 274.779C160.283 222.148 155.683 205.988 154.372 203.087Z" fill="#F7CD1C"/>
<path fill-rule="evenodd" clip-rule="evenodd" d="M157.046 248.997C168.577 247.244 180.066 245.454 192.732 244.837C192.987 248.88 193.538 252.623 193.812 256.645C185.576 257.655 179.365 260.049 172.852 262.246C166.364 264.435 160.367 267.703 151.895 267.713C148.366 267.717 145.898 266.813 144.064 265.204C141.598 263.036 139.476 258.156 138.212 254.066C135.108 244.028 133.119 228.918 134.977 216.12C135.827 210.268 137.494 204.95 142.654 203.504C146.453 202.444 149.312 205.624 150.357 208.272C150.926 209.707 151.075 211.431 151.426 213.178C153.618 224.037 155.478 237.689 157.046 248.997Z" fill="#F2B033"/>
<path d="M157.047 249.538C155.478 238.229 153.894 224.686 151.701 213.828C151.349 212.082 150.926 209.708 150.357 208.272C149.312 205.625 146.453 202.444 142.654 203.504C142.47 203.554 142.302 203.623 142.125 203.685C145.334 203.489 147.726 206.275 148.661 208.643C149.23 210.081 149.494 212.393 149.849 214.141C152.04 224.996 153.776 238.557 155.345 249.866C155.345 249.866 157.062 249.538 157.047 249.538Z" fill="#E2801E"/>
<path fill-rule="evenodd" clip-rule="evenodd" d="M193.811 257.185C193.781 256.738 193.738 256.303 193.701 255.862C188.126 257.192 180.092 259.214 173.881 261.309C167.896 263.328 152.162 267.738 146.712 262.156C144.086 259.464 142.075 255.969 140.73 252.345C136.149 239.992 135.201 216.201 137.553 207.93C137.753 207.476 137.867 206.906 138.205 206.567C134.622 210.144 134.31 224.484 134.31 224.507C134.113 230.566 134.592 236.79 135.487 242.513C136.071 246.517 136.888 250.313 137.981 253.814C138.06 254.077 138.134 254.348 138.213 254.604C139.478 258.692 141.597 263.574 144.065 265.742C144.147 265.814 144.237 265.878 144.322 265.947C144.786 266.38 145.273 266.762 145.79 267.066C147.767 268.225 150.449 268.409 153.09 268.252C155.449 268.109 158.128 267.888 160.474 267.11H160.469C164.894 265.961 193.811 257.185 193.811 257.185Z" fill="#E2801E"/>
<path fill-rule="evenodd" clip-rule="evenodd" d="M156.689 246.972L157.046 249.538C157.046 249.538 153.854 250.154 152.137 250.473C153.768 248.556 156.689 246.972 156.689 246.972Z" fill="#E2801E"/>
<path fill-rule="evenodd" clip-rule="evenodd" d="M202.683 242.445C203.541 243.421 201.585 245.176 200.204 246.258C203.609 246.354 208.257 247.471 211.184 248.935C212.084 249.384 213.692 250.028 213.573 250.922C213.421 252.082 211.416 251.677 210.389 251.456C208.982 251.154 208.182 250.765 206.936 250.666C207.012 250.888 207.425 251.967 206.939 252.523C206.543 252.982 206.158 252.979 205.482 252.922C205.592 253.785 205.558 254.103 204.952 254.648C204.236 255.296 202.829 254.785 202.829 254.785C202.6 255.286 202.085 256.007 201.462 256.417C199.489 257.706 196.632 256.43 193.81 257.186C193.39 253.311 193.258 249.149 192.733 245.379C194.603 245.14 195.887 244.845 197.508 244.177C199.031 243.551 200.257 242.443 201.486 242.05C201.782 241.954 202.369 242.09 202.683 242.445Z" fill="#F9E2C7"/>
<path fill-rule="evenodd" clip-rule="evenodd" d="M202.855 242.751C203.276 243.986 201.272 246.458 198.765 246.564C199.608 246.24 201.074 244.978 201.533 243.975C201.82 243.341 201.745 242.202 200.756 242.355C201.739 241.634 202.621 242.05 202.855 242.751Z" fill="#D8B99C"/>
<path fill-rule="evenodd" clip-rule="evenodd" d="M205.797 249.8C207.928 250.637 207.913 253.484 205.483 252.923C205.673 253.314 205.551 253.982 205.351 254.25C204.708 255.124 203.682 255.125 202.83 254.787C202.361 256.034 201.198 256.995 199.383 257.178C198.098 257.307 195.292 257.232 193.811 257.186C193.811 257.186 195.092 256.93 195.797 256.784C197.997 256.334 200.957 256.425 201.106 254.256C202.044 254.31 202.749 254.21 203.23 253.721C203.541 253.407 203.948 252.638 203.853 251.967C204.778 251.698 206.254 251.025 205.797 249.8Z" fill="#D8B99C"/>
<path fill-rule="evenodd" clip-rule="evenodd" d="M170.991 204.167L169.721 209.109C166.541 213.226 159.891 211.131 157.595 208.166C156.099 206.238 156.677 205.184 157.204 203.164C157.921 200.426 158.626 197.613 159.416 194.992C158.48 194.692 157.155 193.635 156.852 192.114C156.623 190.959 157.298 189.665 158.526 189.57C158.23 183.759 160.131 179.043 165.967 177.471C171.455 175.991 177.159 178.427 178.938 183.497C181.266 190.145 180.173 197.887 177.473 201.549C176.23 203.24 173.783 204.973 170.991 204.167Z" fill="#F9E2C7"/>
<path fill-rule="evenodd" clip-rule="evenodd" d="M175.915 178.951C177.527 178.938 179.567 178.162 180.182 179.408C181.18 181.422 180.618 183.499 178.088 184.165C173.626 185.34 169.502 184.236 167.693 181.887C167.575 182.588 167.386 183.306 167.006 184.062C166.227 185.6 164.181 186.632 163.665 188.615C163.238 190.251 164.137 193.219 162.691 193.539C161.451 193.817 161.086 191.379 160.069 190.41C159.549 189.914 159.229 189.842 158.527 189.57C156.501 186.562 156.751 183.067 159.314 181.069C160.29 180.307 160.645 180.434 161.085 180.056C161.767 179.47 162.004 178.701 162.484 178.241C163.62 177.151 165.059 176.544 167.659 176.129C169.306 175.865 167.522 177.228 169.291 177.042C173.511 176.593 180.582 176.077 175.915 178.951Z" fill="#131E66"/>
<path fill-rule="evenodd" clip-rule="evenodd" d="M164.533 199.944C166.095 201.749 168.78 203.713 170.993 204.167L170.324 206.761C168.857 206.496 164.938 204.795 164.533 199.944Z" fill="#D8B99C"/>
<path fill-rule="evenodd" clip-rule="evenodd" d="M180.773 195.124C180.263 196.558 178.772 197.329 176.893 196.859C176.125 196.669 175.66 195.965 175.478 195.991C175.267 196.018 175.438 196.655 174.198 197.369C172.433 198.379 170.077 197.807 169.624 196.178C172.127 196.418 173.127 193.493 175.34 194.278C177.006 193.106 177.862 194.61 179.129 194.985C179.757 195.171 180.22 195.061 180.773 195.124Z" fill="#131E66"/>
<path fill-rule="evenodd" clip-rule="evenodd" d="M179.632 186.049C179.63 186.373 178.617 186.627 177.373 186.614C176.131 186.601 175.126 186.328 175.127 186.004C175.129 185.679 176.139 185.428 177.383 185.439C178.628 185.453 179.635 185.725 179.632 186.049Z" fill="#131E66"/>
<path fill-rule="evenodd" clip-rule="evenodd" d="M178.827 189.544C178.886 190.096 178.605 190.579 178.202 190.622C177.799 190.665 177.42 190.252 177.364 189.699C177.304 189.147 177.584 188.663 177.987 188.62C178.389 188.576 178.769 188.989 178.827 189.544Z" fill="#131E66"/>
<path fill-rule="evenodd" clip-rule="evenodd" d="M172.77 186.334C172.859 186.642 171.954 187.166 170.757 187.494C169.557 187.825 168.514 187.838 168.429 187.525C168.343 187.212 169.245 186.692 170.444 186.362C171.644 186.032 172.685 186.018 172.77 186.334Z" fill="#131E66"/>
<path fill-rule="evenodd" clip-rule="evenodd" d="M171.367 190.725C171.426 191.278 171.149 191.761 170.744 191.804C170.341 191.847 169.962 191.433 169.907 190.879C169.844 190.329 170.128 189.844 170.532 189.801C170.934 189.758 171.309 190.172 171.367 190.725Z" fill="#131E66"/>
<path d="M175.182 194.378C175.201 194.377 175.219 194.375 175.238 194.368C175.748 194.234 176.089 193.996 176.292 193.643C176.692 192.931 176.402 191.937 176.036 190.675C175.803 189.875 175.536 188.966 175.408 187.984C175.384 187.804 175.216 187.673 175.039 187.7C174.858 187.724 174.729 187.889 174.753 188.069C174.889 189.102 175.163 190.035 175.401 190.861C175.714 191.927 175.983 192.847 175.721 193.317C175.61 193.508 175.399 193.643 175.071 193.73C174.894 193.776 174.79 193.957 174.835 194.134C174.875 194.29 175.024 194.391 175.182 194.378Z" fill="#D8B99C"/>
<path d="M174.9 198.563C174.615 198.517 174.298 198.428 173.948 198.272C173.803 198.207 173.737 198.035 173.8 197.889C173.865 197.741 174.039 197.675 174.184 197.741C175.747 198.429 176.416 197.565 176.445 197.525C176.541 197.399 176.722 197.371 176.851 197.464C176.982 197.559 177.007 197.737 176.917 197.866C176.883 197.912 176.249 198.764 174.9 198.563Z" fill="#D8B99C"/>
<path fill-rule="evenodd" clip-rule="evenodd" d="M164.32 209.44C162.539 210.434 164.362 216.418 165.281 216.697C165.885 216.879 169.454 213.945 170.871 212.864C171.466 212.409 172.261 211.82 172.391 210.997C172.517 210.189 171.565 208.661 171.186 208.018C170.81 207.381 169.925 207.7 169.114 207.907C168.583 208.044 165.143 209.065 164.32 209.44Z" fill="white"/>
<path fill-rule="evenodd" clip-rule="evenodd" d="M163.744 209.256C164.848 211.092 160.136 215.608 159.161 215.384C158.524 215.237 154.465 208.685 153.736 206.96C153.43 206.235 153.013 205.282 153.316 204.464C153.615 203.661 155.258 202.761 155.93 202.371C156.597 201.985 157.234 202.738 157.862 203.349C158.273 203.75 163.194 208.486 163.744 209.256Z" fill="white"/>
<path d="M180.656 180.887C180.656 180.887 173.626 183.463 166.585 183.198C159.542 182.935 157.244 185.222 157.244 185.222L156.671 182.463C155.33 176.027 159.461 169.725 165.897 168.386C172.332 167.047 178.634 171.177 179.974 177.611L180.656 180.887Z" fill="#F7CD1C"/>
<path d="M164.814 168.667C164.436 168.783 164.066 168.917 163.707 169.068C169.317 169.01 174.413 173.075 175.642 178.979L176.3 182.135C177.151 181.937 177.906 181.736 178.541 181.555L177.906 178.508C176.592 172.201 170.865 167.991 164.814 168.667Z" fill="#FBB020"/>
<path d="M158.987 182.21C158.717 182.266 158.455 182.094 158.4 181.825L158.15 180.623C158.093 180.355 158.266 180.092 158.535 180.037C158.804 179.98 159.066 180.152 159.122 180.421L159.372 181.623C159.429 181.891 159.256 182.156 158.987 182.21Z" fill="white"/>
<path d="M160.495 181.897C160.226 181.953 159.963 181.781 159.907 181.511L159.658 180.308C159.601 180.04 159.775 179.778 160.043 179.723C160.312 179.666 160.574 179.838 160.63 180.107L160.881 181.309C160.936 181.578 160.763 181.842 160.495 181.897Z" fill="white"/>
<path d="M162.001 181.583C161.732 181.638 161.469 181.467 161.414 181.199L161.163 179.995C161.107 179.726 161.28 179.465 161.549 179.408C161.817 179.352 162.079 179.525 162.137 179.794L162.386 180.996C162.443 181.265 162.27 181.528 162.001 181.583Z" fill="white"/>
<path d="M156.319 184.584C156.421 185.124 156.95 185.477 157.501 185.373L180.476 181.046C181.027 180.942 181.392 180.42 181.29 179.879C181.188 179.338 180.658 178.984 180.108 179.088L157.133 183.416C156.581 183.52 156.218 184.043 156.319 184.584Z" fill="#FBB020"/>
<path d="M166.318 185.425L183.289 182.036C183.953 181.912 184.409 181.37 184.306 180.828C184.204 180.285 183.588 180.173 182.92 180.073C182.259 179.972 180.716 179.796 180.716 179.796L159.519 183.98C159.519 183.98 164.895 185.694 166.318 185.425Z" fill="#FBB020"/>
</svg>
